<svg width="92" height="92" fill="none" xmlns="http://www.w3.org/2000/svg"><rect width="92" height="92" rx="24" fill="#fff"/><path fill-rule="evenodd" clip-rule="evenodd" d="M67.451 49.078v17.295c0 3.094-2.424 5.629-5.388 5.629H29.97c-2.964 0-5.388-2.535-5.388-5.629V49.078h16.666v7.51l4.769 3.134 4.768-3.133v-7.51h16.666z" fill="url(#paint0_linear_22728_12619)"/><path fill-rule="evenodd" clip-rule="evenodd" d="M42.919 49.078v6.609l3.098 2.035 3.098-2.035v-6.609h-6.197z" fill="url(#paint1_linear_22728_12619)"/><path fill-rule="evenodd" clip-rule="evenodd" d="M26.073 29.145H65.96c1.882 0 3.42 1.708 3.42 3.795v10.253c0 2.088-1.538 3.796-3.42 3.796H26.073c-1.882 0-3.42-1.708-3.42-3.796V32.94c0-2.087 1.538-3.795 3.42-3.795z" fill="url(#paint2_linear_22728_12619)"/><path fill-rule="evenodd" clip-rule="evenodd" d="M37.712 19.955h16.61a2.814 2.814 0 012.805 2.806v4.377H53.57v-2.586c0-.698-.57-1.27-1.268-1.27H39.731c-.698 0-1.268.572-1.268 1.27v2.586h-3.557v-4.377a2.814 2.814 0 012.806-2.806z" fill="url(#paint3_linear_22728_12619)"/><defs><linearGradient id="paint0_linear_22728_12619" x1="46.017" y1="49.078" x2="46.017" y2="72.002" gradientUnits="userSpaceOnUse"><stop stop-color="#EF8080"/><stop offset="1" stop-color="#F0145A"/></linearGradient><linearGradient id="paint1_linear_22728_12619" x1="46.017" y1="49.078" x2="46.017" y2="57.722" gradientUnits="userSpaceOnUse"><stop stop-color="#EF8080"/><stop offset="1" stop-color="#F0145A"/></linearGradient><linearGradient id="paint2_linear_22728_12619" x1="46.016" y1="29.145" x2="46.016" y2="46.989" gradientUnits="userSpaceOnUse"><stop stop-color="#EF8080"/><stop offset="1" stop-color="#F0145A"/></linearGradient><linearGradient id="paint3_linear_22728_12619" x1="46.017" y1="19.955" x2="46.017" y2="27.138" gradientUnits="userSpaceOnUse"><stop stop-color="#EF8080"/><stop offset="1" stop-color="#F0145A"/></linearGradient></defs></svg>