<svg width="130" height="7" fill="none" xmlns="http://www.w3.org/2000/svg"><path d="M0 .118h1.6v5.607h3.464v1.303H0V.118zm15.502 5.43h-3.209l-.612 1.48h-1.638l3.08-6.91h1.579l3.09 6.91h-1.678l-.612-1.48zm-.504-1.215l-1.095-2.645-1.096 2.645h2.191zM33.512.118l-2.26 6.91h-1.718l-1.52-4.679-1.57 4.68h-1.707l-2.27-6.91h1.658l1.56 4.856L27.312.118h1.48l1.58 4.897 1.61-4.897h1.53zm17.011 7.029a4.033 4.033 0 01-1.915-.454 3.518 3.518 0 01-1.342-1.274 3.562 3.562 0 01-.484-1.846c0-.684.161-1.296.484-1.836.329-.546.776-.97 1.342-1.273C49.181.154 49.822 0 50.533 0c.599 0 1.139.105 1.619.316.487.21.895.513 1.224.908l-1.027.948c-.467-.54-1.046-.81-1.737-.81-.428 0-.81.096-1.145.286a2 2 0 00-.79.78 2.34 2.34 0 00-.276 1.145c0 .428.092.81.276 1.145.191.336.454.6.79.79a2.34 2.34 0 001.145.277c.691 0 1.27-.274 1.737-.82l1.027.948a3.2 3.2 0 01-1.224.918c-.487.21-1.03.316-1.629.316zm12.07 0a4.064 4.064 0 01-1.944-.464 3.5 3.5 0 01-1.353-1.274 3.543 3.543 0 01-.483-1.836c0-.677.16-1.286.483-1.826A3.48 3.48 0 0160.649.464C61.228.154 61.876 0 62.593 0c.718 0 1.362.155 1.935.464a3.476 3.476 0 011.846 3.11c0 .677-.164 1.29-.494 1.835a3.5 3.5 0 01-1.352 1.274c-.573.31-1.217.464-1.935.464zm0-1.362c.408 0 .777-.093 1.106-.277a2.01 2.01 0 00.77-.79c.19-.335.286-.717.286-1.145 0-.427-.095-.809-.286-1.145a1.951 1.951 0 00-.77-.78 2.163 2.163 0 00-1.106-.286c-.408 0-.776.096-1.105.286a2.018 2.018 0 00-.78.78 2.34 2.34 0 00-.276 1.145c0 .428.092.81.276 1.145.19.336.45.6.78.79.329.184.697.277 1.105.277zM78.8 7.028l-.01-4.146-2.034 3.416h-.72L74.011 2.97v4.057h-1.5V.118h1.322l2.587 4.294L78.967.118h1.313l.02 6.91h-1.5zM89.866.118c.612 0 1.142.102 1.59.306.453.204.802.494 1.046.87.243.374.365.818.365 1.332 0 .506-.122.95-.365 1.332a2.37 2.37 0 01-1.047.869c-.447.197-.977.296-1.59.296h-1.39v1.905h-1.6V.118h2.99zm-.089 3.702c.48 0 .846-.102 1.096-.306.25-.21.375-.507.375-.888 0-.389-.125-.685-.375-.889-.25-.21-.616-.316-1.096-.316h-1.303v2.4h1.303zm13.371 1.728H99.94l-.612 1.48h-1.64l3.081-6.91h1.579l3.09 6.91h-1.678l-.612-1.48zm-.504-1.215l-1.095-2.645-1.096 2.645h2.191zM117.428.118v6.91h-1.313l-3.445-4.195v4.195h-1.58V.118h1.323l3.435 4.196V.118h1.58zm9.887 4.462v2.448h-1.599V4.561L123.041.118h1.698l1.846 3.07 1.845-3.07H130l-2.685 4.462z" id="LAW COMPANY" fill="#323264"/></svg>