<svg width="130" height="47" fill="none" xmlns="http://www.w3.org/2000/svg"><g id="Name"><g id="Group"><g id="Group_2"><path id="h" d="M4.957 0H0v35.799h4.957V22.518c0-2.247.559-4.02 1.676-5.268 1.118-1.248 2.649-1.897 4.544-1.897 1.628 0 2.989.6 4.082 1.747 1.093 1.174 1.652 2.647 1.652 4.42v14.304h4.981V21.519c0-3.295-.899-5.891-2.697-7.839-1.798-1.947-4.155-2.92-7.022-2.92-.826 0-1.652.1-2.454.324-.826.225-1.482.474-2.017.749-.534.275-1.044.574-1.506.924-.462.35-.778.599-.923.749-.146.15-.268.25-.316.324V0z" fill="#F0145A"/></g></g><g id="Group_3"><g id="Group_4"><path id="Vector" d="M32.973 0h-5.11v35.769h5.11V0z" fill="#323264"/></g><g id="Group_5"><path id="Vector_2" d="M63.112 25.294l.255-2.555c0-3.424-1.124-6.286-3.423-8.585-2.3-2.3-5.162-3.424-8.585-3.424-3.424 0-6.387 1.227-8.84 3.68-2.453 2.452-3.68 5.365-3.68 8.84 0 3.576 1.278 6.642 3.782 9.197 2.504 2.555 5.519 3.833 8.993 3.833 1.329 0 2.555-.205 3.782-.562 1.226-.41 2.248-.818 2.963-1.227.767-.46 1.533-.97 2.198-1.533.664-.562 1.124-.97 1.328-1.226.205-.256.358-.409.46-.562l-3.321-3.322-.767.971c-.51.614-1.38 1.227-2.606 1.89-1.277.665-2.606.972-4.037.972-1.992 0-3.679-.613-5.11-1.89-1.43-1.278-2.299-2.76-2.554-4.497h19.162zm-11.753-10.22c1.89 0 3.423.562 4.701 1.635 1.226 1.124 1.993 2.504 2.3 4.241H44.153c.46-1.737 1.277-3.117 2.555-4.241 1.226-1.073 2.81-1.635 4.65-1.635z" fill="#323264"/></g><g id="Group_6"><path id="Vector_3" d="M86.943 34.287c0 2.248-.664 4.088-2.044 5.518-1.329 1.38-3.015 2.096-5.11 2.096-.92 0-1.84-.154-2.708-.41-.869-.255-1.533-.561-2.095-.92a11.553 11.553 0 01-1.584-1.174l-.92-.92c-.153-.153-.255-.307-.358-.409l-3.32 3.322.408.51c.255.358.715.818 1.328 1.329.614.46 1.329.97 2.147 1.482.817.46 1.84.869 3.117 1.226 1.277.358 2.606.562 3.985.562 3.475 0 6.336-1.175 8.738-3.526 2.35-2.401 3.526-5.263 3.526-8.737V11.242h-5.11v2.554l-.869-.766c-.562-.511-1.43-1.022-2.657-1.533a10.122 10.122 0 00-3.883-.767c-3.117 0-5.774 1.176-8.074 3.577-2.3 2.402-3.423 5.263-3.423 8.687 0 3.424 1.124 6.285 3.423 8.687 2.3 2.401 4.957 3.577 8.074 3.577.868 0 1.686-.102 2.555-.307a17.609 17.609 0 002.044-.766 7.623 7.623 0 001.533-.92c.46-.358.817-.613.92-.715l.357-.358v2.095zM73.147 22.994c0-2.146.664-3.934 2.043-5.416 1.38-1.482 3.015-2.249 4.855-2.249 1.84 0 3.474.767 4.854 2.249 1.329 1.482 2.044 3.27 2.044 5.416 0 2.146-.715 3.935-2.044 5.416-1.38 1.482-3.015 2.249-4.854 2.249-1.84 0-3.475-.767-4.855-2.248-1.38-1.482-2.043-3.27-2.043-5.417z" fill="#323264"/></g><g id="Group_7"><path id="Vector_4" d="M118.724 35.769v-15.84c0-2.607-.971-4.804-2.862-6.541-1.89-1.789-4.343-2.658-7.358-2.658-1.175 0-2.35.154-3.474.46-1.125.358-2.044.716-2.709 1.125-.664.408-1.328.868-1.941 1.43a16.13 16.13 0 00-1.176 1.073c-.153.205-.306.358-.408.511l3.321 3.322.664-.869c.409-.562 1.124-1.073 2.197-1.635s2.249-.818 3.526-.818c1.482 0 2.708.46 3.679 1.329.971.869 1.431 1.993 1.431 3.27l-8.942 1.533c-2.197.358-3.986 1.227-5.212 2.606-1.278 1.38-1.942 3.066-1.942 5.059 0 1.89.818 3.526 2.453 4.956 1.686 1.482 3.73 2.198 6.234 2.198.868 0 1.686-.102 2.504-.358.868-.204 1.533-.46 2.095-.715a7.628 7.628 0 001.533-.92c.459-.358.766-.613.97-.715.154-.154.256-.307.307-.358v2.555h5.11zm-11.753-4.088c-1.328 0-2.401-.307-3.168-.92-.817-.613-1.175-1.328-1.175-2.146 0-.869.255-1.635.817-2.197.563-.562 1.329-.971 2.249-1.124l7.92-1.278v.511c0 2.3-.562 4.037-1.737 5.314-1.176 1.227-2.811 1.84-4.906 1.84z" fill="#323264"/></g><g id="Group_8"><path id="Vector_5" d="M130 0h-5.11v35.769H130V0z" fill="#323264"/></g></g></g></svg>